<svg width="156" height="134" viewBox="0 0 156 134" fill="none" xmlns="http://www.w3.org/2000/svg">
<path d="M44.4235 28.9524C50.7968 14.4009 65.1773 5 81.0633 5H117.414C119.071 5 120.414 6.34314 120.414 8C120.414 9.65686 119.071 11 117.414 11H111.495C110.082 11 109.114 12.4253 109.636 13.7384V13.7384C109.939 14.5 110.675 15 111.495 15H126.914C129.952 15 132.414 17.4624 132.414 20.5C132.414 23.5376 129.952 26 126.914 26H118.927C116.808 26 115.357 28.138 116.139 30.1077L155.78 129.887C156.563 131.858 155.109 133.997 152.988 133.995L143.693 133.983C123.901 133.958 105.987 122.262 98.0034 104.153L79.5128 62.2095C78.4619 59.8257 75.0809 59.8223 74.0251 62.2039L67.2507 77.4855C66.6219 78.9038 67.6602 80.5 69.2118 80.5C76.3197 80.5 82.7523 84.7111 85.5955 91.2255L93.7027 109.8C94.5676 111.782 93.1154 114 90.9532 114H52.4426C51.6912 114 51.0108 114.444 50.7083 115.132C45.6683 126.597 34.3281 134 21.8038 134H3.00338C0.83932 134 -0.612829 131.779 0.255335 129.796L44.4235 28.9524Z" fill="black" fill-opacity="0.1"/>
<path d="M126.414 5C124.757 5 123.414 6.34314 123.414 8C123.414 9.65686 124.757 11 126.414 11H129.414C131.071 11 132.414 9.65686 132.414 8C132.414 6.34314 131.071 5 129.414 5H126.414Z" fill="black" fill-opacity="0.1"/>
<path d="M44.4235 23.9524C50.7968 9.40088 65.1773 0 81.0633 0H117.414C119.071 0 120.414 1.34314 120.414 3C120.414 4.65686 119.071 6 117.414 6H111.495C110.082 6 109.114 7.42532 109.636 8.73842V8.73842C109.939 9.50004 110.675 10 111.495 10H126.914C129.952 10 132.414 12.4624 132.414 15.5C132.414 18.5376 129.952 21 126.914 21H118.927C116.808 21 115.357 23.138 116.139 25.1077L155.78 124.887C156.563 126.858 155.109 128.997 152.988 128.995L143.693 128.983C123.901 128.958 105.987 117.262 98.0034 99.1526L79.5128 57.2095C78.4619 54.8257 75.0809 54.8223 74.0251 57.2039L67.2507 72.4855C66.6219 73.9038 67.6602 75.5 69.2118 75.5C76.3197 75.5 82.7523 79.7111 85.5955 86.2255L93.7027 104.8C94.5676 106.782 93.1154 109 90.9532 109H52.4426C51.6912 109 51.0108 109.444 50.7083 110.132C45.6683 121.597 34.3281 129 21.8038 129H3.00338C0.83932 129 -0.612829 126.779 0.255335 124.796L44.4235 23.9524Z" fill="white"/>
<path d="M126.414 0C124.757 0 123.414 1.34314 123.414 3C123.414 4.65686 124.757 6 126.414 6H129.414C131.071 6 132.414 4.65686 132.414 3C132.414 1.34314 131.071 0 129.414 0H126.414Z" fill="white"/>
</svg>
